<mxfile host="Electron" agent="Mozilla/5.0 (Windows NT 10.0; Win64; x64) AppleWebKit/537.36 (KHTML, like Gecko) draw.io/26.0.9 Chrome/128.0.6613.186 Electron/32.2.5 Safari/537.36" version="26.0.9">
  <diagram name="PÃ¡gina-1" id="Pen0r78Bbn_Q8RjXSIQi">
    <mxGraphModel dx="712" dy="875" grid="1" gridSize="10" guides="1" tooltips="1" connect="1" arrows="1" fold="1" page="1" pageScale="1" pageWidth="1169" pageHeight="827" background="none" math="0" shadow="1">
      <root>
        <mxCell id="0" />
        <mxCell id="1" parent="0" />
        <mxCell id="4IJdgiFgqnaHbr2BzRjY-1" value="Users" style="swimlane;fontStyle=1;align=center;verticalAlign=top;childLayout=stackLayout;horizontal=1;startSize=26;horizontalStack=0;resizeParent=1;resizeParentMax=0;resizeLast=0;collapsible=1;marginBottom=0;whiteSpace=wrap;html=1;fillColor=#fff2cc;strokeColor=#d6b656;rounded=0;" parent="1" vertex="1">
          <mxGeometry x="160" y="200" width="160" height="214" as="geometry">
            <mxRectangle x="140" y="230" width="70" height="30" as="alternateBounds" />
          </mxGeometry>
        </mxCell>
        <mxCell id="4IJdgiFgqnaHbr2BzRjY-2" value="- id : uuid&lt;div&gt;- name : String&lt;/div&gt;&lt;div&gt;- lastName : String&lt;/div&gt;&lt;div&gt;- email : String&lt;/div&gt;&lt;div&gt;- hashedPassword : String&lt;/div&gt;&lt;div&gt;- birthday : LocalDate&lt;/div&gt;&lt;div&gt;- phone : String&lt;/div&gt;&lt;div&gt;- rg : String&lt;/div&gt;&lt;div&gt;- cpf : String&lt;/div&gt;" style="text;strokeColor=#d6b656;fillColor=#fff2cc;align=left;verticalAlign=top;spacingLeft=4;spacingRight=4;overflow=hidden;rotatable=0;points=[[0,0.5],[1,0.5]];portConstraint=eastwest;whiteSpace=wrap;html=1;rounded=0;" parent="4IJdgiFgqnaHbr2BzRjY-1" vertex="1">
          <mxGeometry y="26" width="160" height="154" as="geometry" />
        </mxCell>
        <mxCell id="4IJdgiFgqnaHbr2BzRjY-3" value="" style="line;strokeWidth=1;fillColor=#fff2cc;align=left;verticalAlign=middle;spacingTop=-1;spacingLeft=3;spacingRight=3;rotatable=0;labelPosition=right;points=[];portConstraint=eastwest;strokeColor=#d6b656;rounded=0;" parent="4IJdgiFgqnaHbr2BzRjY-1" vertex="1">
          <mxGeometry y="180" width="160" height="8" as="geometry" />
        </mxCell>
        <mxCell id="4IJdgiFgqnaHbr2BzRjY-4" value="+ method(type): type" style="text;strokeColor=#d6b656;fillColor=#fff2cc;align=left;verticalAlign=top;spacingLeft=4;spacingRight=4;overflow=hidden;rotatable=0;points=[[0,0.5],[1,0.5]];portConstraint=eastwest;whiteSpace=wrap;html=1;rounded=0;" parent="4IJdgiFgqnaHbr2BzRjY-1" vertex="1">
          <mxGeometry y="188" width="160" height="26" as="geometry" />
        </mxCell>
        <mxCell id="YCLdGjL5JyD2pM5bOY3t-1" value="Task" style="swimlane;fontStyle=1;align=center;verticalAlign=top;childLayout=stackLayout;horizontal=1;startSize=26;horizontalStack=0;resizeParent=1;resizeParentMax=0;resizeLast=0;collapsible=1;marginBottom=0;whiteSpace=wrap;html=1;fillColor=#fff2cc;strokeColor=#d6b656;rounded=0;" parent="1" vertex="1">
          <mxGeometry x="480" y="200" width="160" height="164" as="geometry" />
        </mxCell>
        <mxCell id="YCLdGjL5JyD2pM5bOY3t-2" value="- id : uuid&lt;div&gt;- name : String&lt;/div&gt;&lt;div&gt;- descripton : String&lt;/div&gt;&lt;div&gt;- dueDate : LocalDate&lt;/div&gt;&lt;div&gt;- priority : Enum&lt;/div&gt;&lt;div&gt;- status : Enum&lt;/div&gt;" style="text;strokeColor=#d6b656;fillColor=#fff2cc;align=left;verticalAlign=top;spacingLeft=4;spacingRight=4;overflow=hidden;rotatable=0;points=[[0,0.5],[1,0.5]];portConstraint=eastwest;whiteSpace=wrap;html=1;rounded=0;" parent="YCLdGjL5JyD2pM5bOY3t-1" vertex="1">
          <mxGeometry y="26" width="160" height="104" as="geometry" />
        </mxCell>
        <mxCell id="YCLdGjL5JyD2pM5bOY3t-3" value="" style="line;strokeWidth=1;fillColor=#fff2cc;align=left;verticalAlign=middle;spacingTop=-1;spacingLeft=3;spacingRight=3;rotatable=0;labelPosition=right;points=[];portConstraint=eastwest;strokeColor=#d6b656;rounded=0;" parent="YCLdGjL5JyD2pM5bOY3t-1" vertex="1">
          <mxGeometry y="130" width="160" height="8" as="geometry" />
        </mxCell>
        <mxCell id="YCLdGjL5JyD2pM5bOY3t-4" value="+ method(type): type" style="text;strokeColor=#d6b656;fillColor=#fff2cc;align=left;verticalAlign=top;spacingLeft=4;spacingRight=4;overflow=hidden;rotatable=0;points=[[0,0.5],[1,0.5]];portConstraint=eastwest;whiteSpace=wrap;html=1;rounded=0;" parent="YCLdGjL5JyD2pM5bOY3t-1" vertex="1">
          <mxGeometry y="138" width="160" height="26" as="geometry" />
        </mxCell>
        <mxCell id="jqsZw3nCOqBA21wrOJYE-1" style="edgeStyle=orthogonalEdgeStyle;rounded=0;orthogonalLoop=1;jettySize=auto;html=1;entryX=-0.019;entryY=0.431;entryDx=0;entryDy=0;entryPerimeter=0;" parent="1" source="4IJdgiFgqnaHbr2BzRjY-2" target="YCLdGjL5JyD2pM5bOY3t-2" edge="1">
          <mxGeometry relative="1" as="geometry" />
        </mxCell>
      </root>
    </mxGraphModel>
  </diagram>
</mxfile>
